# xmcd
# 
# Track frame offsets:
#     150
#     17570
#     33191
#     54501
#     76935
#     85687
#     99727
#     107806
#     119344
#     134328
#     139246
#     153283
#     168136
#     189353
# 
# Disc length: 2850
# 
# Revision: 0
# Processed by: cddbd v1.5.2PL0 Copyright (c) Steve Scherf et al.
# Submitted via: fre:ac v1.0.31
# 
DISCID=a70b200e
DTITLE=渡辺岳夫・松山祐士 - 機動戦士ガンダムⅡ オリジナルサントラ 哀 戦士
DYEAR=1981
DGENRE=Soundtrack
TTITLE0=井上大輔 - 哀 戦士
TTITLE1=井上大輔 - 風にひとりで
TTITLE2=ガンダムよ
TTITLE3=空域間戦争
TTITLE4=予感
TTITLE5=赤い閃光の奴
TTITLE6=意志を
TTITLE7=我に力を
TTITLE8=心たちよ
TTITLE9=ジャブローへ
TTITLE10=ふるえないで
TTITLE11=華麗なるを
TTITLE12=戦場に愛惜を
TTITLE13=やすらぎを求めて
EXTD=
EXTT0=
EXTT1=
EXTT2=
EXTT3=
EXTT4=
EXTT5=
EXTT6=
EXTT7=
EXTT8=
EXTT9=
EXTT10=
EXTT11=
EXTT12=
EXTT13=
PLAYORDER=
